<svg
  xmlns="http://www.w3.org/2000/svg"
  viewBox="0 0 36 36"
  width="36"
  height="36"
  fill="none"
  stroke-linecap="round"
  stroke-linejoin="round"
>
  <!-- Lista -->
  <rect x="18" y="6" width="14" height="24" rx="2" ry="2"
        stroke="#333" stroke-width="1.3" fill="#F5F5F5"/>

  <!-- Líneas de texto -->
  <line x1="21" y1="12" x2="27" y2="12" stroke="#333" stroke-width="1.15"/>
  <line x1="21" y1="17" x2="27" y2="17" stroke="#333" stroke-width="1.15"/>
  <line x1="21" y1="22" x2="27" y2="22" stroke="#333" stroke-width="1.15"/>

  <!-- Checks -->
  <path d="M29.5 11l1.4 1.6 2.6-3.2" stroke="#E53935" stroke-width="1.6"/>
  <path d="M29.5 16l1.4 1.6 2.6-3.2" stroke="#E53935" stroke-width="1.6"/>
  <path d="M29.5 21l1.4 1.6 2.6-3.2" stroke="#E53935" stroke-width="1.6"/>

  <!-- Carrito con líneas más delgadas -->
  <path d="M4 10h2l1.1 8a2 2 0 0 0 2 1.7h6"
        stroke="#333" stroke-width="1.1"/>

  <path d="M7 10h11l-1.3 6a2 2 0 0 1-2 1.5H9"
        stroke="#333" stroke-width="1.1"
        fill="#BEE9F5"/> <!-- celeste suave -->

  <!-- Ruedas -->
  <circle cx="10" cy="23.5" r="1.4" stroke="#333" stroke-width="1.1" fill="white"/>
  <circle cx="15" cy="23.5" r="1.4" stroke="#333" stroke-width="1.1" fill="white"/>
</svg>
